<svg width="932" height="295" viewBox="0 0 932 295" fill="none" xmlns="http://www.w3.org/2000/svg">
<path d="M263.906 262.485C263.906 262.485 277.231 293.741 236.146 293.741C189.879 293.741 147.313 210.627 139.171 193.933C124.365 239.043 113.631 279.888 113.631 294.096C107.709 294.096 91.0532 288.413 91.0532 278.113C91.0532 244.015 161.009 44.3986 182.476 35.1637C193.951 30.191 210.237 42.2674 206.536 45.4642C190.62 60.3821 168.781 110.109 149.905 161.611C228.004 153.797 281.673 20.6009 202.093 20.6009C146.574 20.6009 24.799 74.5896 24.799 141.72C24.799 143.852 27.0199 147.048 27.0199 148.824C27.0199 157.349 0 135.682 0 124.317C0 93.0595 86.9817 0 201.354 0C313.875 0 258.354 146.693 189.879 171.911C179.886 174.753 168.411 178.66 156.937 181.501C173.223 209.206 211.347 269.944 240.958 269.944C250.211 269.944 255.023 268.523 258.724 267.102C261.316 265.682 260.945 264.616 261.316 263.195C261.685 261.774 263.536 261.064 263.536 261.064L263.906 262.485Z" fill="#F54C79"/>
<path d="M349.034 184.699C368.281 180.436 384.567 168.36 384.567 168.36V179.725C384.567 179.725 367.91 193.578 343.111 196.42C340.521 201.037 337.929 205.655 334.969 209.917C327.936 219.863 319.794 229.452 309.799 236.911C299.806 244.37 287.592 249.698 275.007 251.119C267.974 251.474 260.571 250.764 254.65 246.857C246.136 241.528 242.435 230.873 240.585 221.283C236.513 197.13 241.324 171.912 250.948 149.535C253.168 144.918 255.389 140.299 259.091 137.103C261.312 135.327 263.902 134.261 266.494 133.196C268.715 123.606 273.897 114.371 281.669 108.333C289.442 101.939 299.436 98.7427 309.429 97.3219C324.235 95.546 340.151 99.0978 349.774 109.398C355.696 115.792 359.027 123.961 359.768 132.485C360.507 140.655 359.397 149.535 357.176 158.06C354.956 166.939 351.995 175.463 347.924 183.988L349.034 184.699ZM276.858 232.649C286.481 230.873 304.988 223.769 323.125 196.064C302.767 193.222 283.149 182.212 273.526 165.874C269.455 178.661 266.494 192.513 267.604 206.365C267.974 213.114 269.455 220.572 272.786 226.256C273.526 227.676 275.007 230.163 276.858 231.939V232.649ZM328.677 186.12C347.924 149.535 336.449 116.502 322.014 108.333C289.813 112.239 286.851 146.693 307.579 172.977C313.501 180.436 320.904 184.343 329.046 185.764H328.677V186.12Z" fill="#F54C79"/>
<path d="M478.213 162.677C478.213 162.677 478.953 162.677 487.836 162.677C479.323 182.212 433.426 249.343 396.412 249.343C366.062 249.343 355.698 219.863 360.51 191.092C366.431 154.507 396.412 97.3221 440.829 97.3221C467.479 97.3221 468.219 125.382 461.187 125.382C461.187 125.382 456.745 122.896 443.05 122.896C399.004 122.896 373.464 216.31 393.452 230.518C435.647 229.807 477.472 163.387 477.472 163.387L478.213 162.677ZM400.114 231.228C400.114 231.228 399.745 231.228 399.374 231.228H400.114Z" fill="#F54C79"/>
<path d="M602.581 164.453C585.185 200.326 572.6 233.359 542.249 249.698C538.917 251.829 532.995 254.315 527.813 254.315C522.631 254.315 517.82 252.184 515.229 250.053C504.495 241.173 498.202 224.48 492.65 206.364C487.468 225.9 484.508 242.239 484.508 251.119C478.585 251.119 461.93 245.436 461.93 235.135C461.93 201.037 517.079 39.0707 538.547 29.8357C550.022 24.8632 566.308 36.9396 562.607 40.1362C543.36 58.2509 520.411 114.015 504.495 164.453C520.041 137.814 548.911 96.9665 564.457 96.9665C567.418 96.9665 584.814 105.135 585.185 109.753C587.035 129.644 555.943 186.118 510.417 198.906C515.228 214.889 523.742 227.32 533.736 236.556C551.872 229.097 573.341 196.775 592.587 162.676L602.581 164.453ZM515.229 173.687C515.229 173.687 564.457 148.114 561.495 121.119C547.43 129.289 537.807 138.523 515.229 173.687Z" fill="#F54C79"/>
<path d="M696.224 161.966C696.224 161.966 696.224 162.321 704.737 162.321C696.224 181.857 650.327 248.987 613.314 248.987C582.962 248.987 572.599 219.506 577.041 190.737C582.962 154.152 613.314 96.9663 657.36 96.9663C677.717 96.9663 682.898 113.66 681.418 121.119C681.418 121.119 681.418 121.475 681.418 121.83C681.418 122.185 681.418 122.54 681.418 122.54C678.828 130.71 662.171 176.884 631.451 189.671C616.274 196.419 606.281 179.725 606.281 179.725C626.269 181.501 656.25 141.72 665.132 122.54C663.651 122.54 662.541 122.54 661.061 122.54C623.677 122.54 578.892 206.719 613.684 230.162C655.139 227.32 695.113 163.387 695.113 163.387L696.224 161.966Z" fill="#F54C79"/>
<path d="M812.072 61.4477L806.52 61.0924C805.78 61.0924 806.151 60.7373 765.066 59.6718C772.098 48.3056 778.021 40.4915 781.722 38.3604C781.722 38.3604 775.059 26.6392 759.884 26.6392C756.553 26.6392 747.669 39.426 737.306 58.6061C697.701 57.8958 661.798 57.8958 658.466 60.7373C647.733 71.0378 649.213 86.3109 649.213 86.3109C654.766 80.9831 689.928 77.076 729.162 74.9448C697.701 138.524 659.948 242.949 696.591 249.698C729.903 246.146 782.832 208.14 781.352 208.496C771.728 209.206 729.162 219.507 709.915 224.48C701.772 194.288 732.494 119.343 757.292 74.2345C799.118 72.8137 799.488 73.5241 804.3 73.5241C808.371 67.4859 812.072 61.4477 812.072 61.4477Z" fill="#F54C79"/>
<path d="M764.699 212.403C786.537 191.092 808.375 169.425 829.843 148.114C828.733 148.114 827.992 148.469 826.882 148.824C825.772 147.758 824.661 146.693 823.551 145.627C785.057 181.146 735.828 217.731 708.068 219.861C706.217 197.13 719.543 154.152 710.289 181.501C699.555 196.064 676.977 228.386 685.49 242.239C703.627 272.43 784.687 214.534 842.057 163.742C840.947 162.321 839.467 161.256 838.356 160.19C813.927 177.595 789.498 194.998 764.699 212.403Z" fill="#F54C79"/>
<path d="M740.636 261.774C798.007 243.304 839.832 198.196 839.832 198.196L836.501 194.643C805.04 221.993 768.766 249.343 740.636 261.774Z" fill="#F54C79"/>
<path d="M689.934 210.272C747.304 191.802 789.129 146.693 789.129 146.693L785.798 143.141C754.337 170.491 718.064 197.84 689.934 210.272Z" fill="#F54C79"/>
<path d="M839.836 108.688C826.511 112.595 814.297 118.278 803.563 126.092C797.641 130.354 792.088 135.327 787.277 141.365L793.939 147.759L805.043 143.142L814.667 152.376L815.037 152.731C816.148 150.6 817.999 148.824 819.849 147.048C820.589 147.759 821.7 148.469 823.551 150.6C824.29 151.31 825.031 152.021 825.771 152.731C826.511 152.376 827.252 152.376 827.621 152.021C828.733 150.955 829.843 149.535 831.323 148.469C832.434 147.403 833.914 147.048 835.395 147.403C836.875 147.759 837.985 148.469 838.726 149.535C839.836 150.6 840.206 152.021 840.206 153.086C840.206 154.507 839.467 155.928 838.726 156.639C836.875 157.703 835.395 159.124 833.544 160.19C834.285 160.901 835.024 161.611 836.134 162.677C836.875 163.387 837.616 164.097 838.355 164.807C836.505 166.583 834.654 168.36 832.434 169.425L833.544 170.491L842.427 179.015L837.985 189.671L844.648 196.064C850.57 191.446 855.752 186.119 860.194 180.436C867.966 170.491 873.518 158.769 877.59 145.982C929.409 109.399 932 55.7646 932 55.7646C884.623 64.2892 856.122 87.7316 839.836 108.688ZM880.181 113.66C878.7 112.95 877.22 112.24 876.11 110.819C872.408 107.622 871.298 102.65 872.038 98.3873C872.408 95.5457 873.889 92.7043 876.11 90.5732C882.031 84.8901 891.285 84.8901 897.207 90.5732C903.13 96.2561 903.13 105.136 897.207 110.819C892.396 115.081 885.733 116.147 880.181 113.66Z" fill="#F54C79"/>
</svg>
